<svg xmlns="http://www.w3.org/2000/svg" width="420" height="180" viewBox="0 0 420 180" role="img" aria-labelledby="title desc">
  <title id="title">Web3 profile illustration</title>
  <desc id="desc">A clean anime-inspired orange fox in a dark hoodie using a laptop with a small Ethereum symbol.</desc>
  <defs>
    <linearGradient id="bg" x1="0" x2="1">
      <stop offset="0" stop-color="#0b1220"/>
      <stop offset="1" stop-color="#15102c"/>
    </linearGradient>
    <linearGradient id="hood" x1="0" x2="1">
      <stop offset="0" stop-color="#30255f"/>
      <stop offset="1" stop-color="#171a38"/>
    </linearGradient>
  </defs>
  <rect width="420" height="180" rx="20" fill="url(#bg)"/>
  <circle cx="320" cy="40" r="70" fill="#6d4aff" opacity=".08"/>
  <circle cx="360" cy="120" r="50" fill="#31b6ff" opacity=".07"/>
  <path d="M250 132c-4-38 18-66 54-66s58 28 54 66" fill="url(#hood)"/>
  <path d="M277 68 263 36l32 18 22-24 22 24 32-18-14 32c10 14 7 40-7 52-12 11-32 16-50 11-18-5-30-20-30-41 0-10 3-16 7-22Z" fill="#e8792f"/>
  <path d="m286 61-17-17 25 8 11-22 11 22 25-8-17 17Z" fill="#f3a24f"/>
  <path d="M285 84c7 6 18 9 29 9s22-3 29-9c1 18-12 30-29 30s-30-12-29-30Z" fill="#fff1de"/>
  <circle cx="300" cy="82" r="4" fill="#111827"/>
  <circle cx="328" cy="82" r="4" fill="#111827"/>
  <path d="M307 99c5 3 9 3 14 0" fill="none" stroke="#111827" stroke-width="3" stroke-linecap="round"/>
  <path d="M247 122c18-10 32-5 45 6 6 6 12 12 17 20h-78c2-10 7-18 16-26Z" fill="#171a38"/>
  <rect x="270" y="118" width="118" height="38" rx="6" fill="#0a0f1c" stroke="#4b7dff" stroke-width="2"/>
  <path d="M280 122h98v28h-98z" fill="#111827"/>
  <path d="M329 127 338 142 329 147 320 142Z" fill="#627eea"/>
  <path d="m329 127 9 15-9-4Z" fill="#8fa7ff" opacity=".9"/>
  <path d="M262 158h138" stroke="#5f6d86" stroke-width="5" stroke-linecap="round"/>
  <text x="24" y="34" fill="#e5e7eb" font-family="Arial, sans-serif" font-size="16" font-weight="700">WEB3 BUILDER</text>
  <text x="24" y="56" fill="#94a3b8" font-family="Arial, sans-serif" font-size="12">Blockchain • Smart Contracts • Wallets</text>
  <text x="24" y="151" fill="#a78bfa" font-family="Arial, sans-serif" font-size="12">Build • Learn • Ship</text>
</svg>
